<svg width="131" height="21" fill="none" xmlns="http://www.w3.org/2000/svg"><path d="M0 .432h3.061l7.474 15.7 7.474-15.7h3.061v20.136h-2.971V6.25l-6.814 14.317h-1.5L2.94 6.25v14.317H0V.432zm31.984 0h2.942L43.3 20.568h-3.122l-2.1-5.012h-9.275l-2.041 5.012H23.61L31.984.432zm5.253 12.675l-3.782-9.42-3.782 9.42h7.564zM46.604.432h8.434c2.241 0 3.962.519 5.163 1.556C61.4 3.025 62 4.542 62 6.539c0 1.479-.41 2.737-1.23 3.774-.82 1.018-1.981 1.709-3.482 2.074l4.622 8.18h-3.18l-4.472-7.95h-4.592v7.95h-3.062V.433zm7.924 9.708c1.34 0 2.401-.298 3.181-.893.8-.615 1.201-1.517 1.201-2.708 0-1.306-.39-2.237-1.17-2.794-.76-.557-1.831-.836-3.212-.836h-4.862v7.23h4.862zM75.31 21c-2.081 0-3.962-.432-5.643-1.296-1.68-.884-3.001-2.122-3.962-3.716-.96-1.594-1.44-3.419-1.44-5.474 0-2.054.48-3.879 1.44-5.473.96-1.594 2.281-2.833 3.962-3.716C71.347.442 73.23 0 75.31 0c2.08 0 3.962.442 5.642 1.325 1.681.883 3.002 2.122 3.962 3.716.96 1.594 1.441 3.419 1.441 5.473 0 2.055-.48 3.88-1.44 5.474-.961 1.594-2.282 2.832-3.963 3.716-1.68.864-3.561 1.296-5.642 1.296zm0-2.65c1.48 0 2.821-.317 4.022-.95a7.307 7.307 0 002.881-2.737c.7-1.191 1.05-2.574 1.05-4.149 0-1.555-.35-2.919-1.05-4.09a6.901 6.901 0 00-2.821-2.737c-1.2-.653-2.541-.98-4.022-.98-1.501 0-2.862.318-4.082.951a7.304 7.304 0 00-2.882 2.737c-.7 1.19-1.05 2.564-1.05 4.12 0 1.574.35 2.957 1.05 4.148a7.362 7.362 0 002.852 2.736c1.22.634 2.571.95 4.052.95zM99.96 21c-2.08 0-3.962-.432-5.643-1.296-1.68-.884-3.001-2.122-3.961-3.716-.96-1.594-1.441-3.419-1.441-5.474 0-2.054.48-3.879 1.44-5.473.961-1.594 2.282-2.833 3.962-3.716C95.998.442 97.88 0 99.96 0s3.962.442 5.643 1.325c1.681.883 3.001 2.122 3.962 3.716.96 1.594 1.44 3.419 1.44 5.473 0 2.055-.48 3.88-1.44 5.474-.961 1.594-2.281 2.832-3.962 3.716-1.681.864-3.562 1.296-5.643 1.296zm0-2.65c1.481 0 2.821-.317 4.022-.95a7.301 7.301 0 002.881-2.737c.701-1.191 1.051-2.574 1.051-4.149 0-1.555-.35-2.919-1.051-4.09a6.896 6.896 0 00-2.821-2.737c-1.201-.653-2.541-.98-4.022-.98-1.5 0-2.861.318-4.082.951a7.304 7.304 0 00-2.881 2.737c-.7 1.19-1.05 2.564-1.05 4.12 0 1.574.35 2.957 1.05 4.148a7.363 7.363 0 002.851 2.736c1.22.634 2.571.95 4.052.95zM114.312.432h2.911l10.686 15.181V.433H131v20.135h-2.941L117.374 5.387v15.18h-3.062V.433z" fill="#122947"/></svg>